<svg width="52" height="52" viewBox="0 0 52 52" fill="none" xmlns="http://www.w3.org/2000/svg">
<g clip-path="url(#clip0_140_769)">
<path d="M51.3281 28.801C51.3281 27.5867 50.6531 26.527 49.6588 25.9773C50.145 25.4126 50.4393 24.6782 50.4393 23.8763C50.4393 22.0985 48.993 20.6523 47.2152 20.6523H46.8708C47.0803 18.6169 47.9542 16.712 49.3755 15.2217C51.0679 13.4474 51.9999 11.1194 51.9999 8.66669C51.9999 5.00882 49.8617 1.63563 46.5526 0.0728949C46.3171 -0.0384173 46.0401 -0.0214565 45.8196 0.118293C45.5992 0.257941 45.4657 0.500777 45.4657 0.76169V8.72996L42.501 10.4417L39.5364 8.72996L39.5363 0.76169C39.5363 0.500777 39.4027 0.257941 39.1823 0.118293C38.9616 -0.021558 38.6851 -0.0386205 38.4493 0.0728949C35.0711 1.66824 32.9336 5.11313 33.0038 8.8492C33.0222 9.81983 33.1888 10.7766 33.4996 11.693C33.6346 12.0915 34.0672 12.3048 34.4656 12.1698C34.864 12.0348 35.0774 11.6022 34.9423 11.2038C34.682 10.436 34.5424 9.63417 34.527 8.82046C34.4759 6.10529 35.8133 3.57334 38.0129 2.07276V9.16973C38.0129 9.44192 38.1582 9.69328 38.3938 9.82937L42.1201 11.9809C42.3557 12.117 42.6462 12.117 42.8818 11.9809L46.6083 9.82937C46.8439 9.69328 46.9891 9.44192 46.9891 9.16973V2.07377C49.1401 3.54521 50.4765 6.01713 50.4765 8.66679C50.4765 10.7262 49.694 12.6807 48.2733 14.1702C46.5808 15.9446 45.5549 18.2232 45.3404 20.6523H39.6628C39.4509 18.2258 38.4213 15.9381 36.7199 14.1435C36.4304 13.8381 35.9482 13.8254 35.643 14.1149C35.3377 14.4043 35.3248 14.8865 35.6143 15.1918C35.7788 15.3652 35.9359 15.544 36.0856 15.7276H34.9212C31.7718 15.7276 28.7292 16.8634 26.354 18.9257C25.6637 19.5249 24.759 19.855 23.8064 19.855L21.1935 19.8555C21.1561 19.4697 20.8309 19.1682 20.4355 19.1682H13.655C13.2594 19.1682 12.9342 19.4698 12.8969 19.8557H0.761717C0.341046 19.8557 0 20.1966 0 20.6174V36.9847C0 37.4055 0.341046 37.7464 0.761717 37.7464H12.8967C12.9341 38.1322 13.2592 38.4339 13.6547 38.4339H20.4353C20.8308 38.4339 21.1559 38.1324 21.1933 37.7466L23.8064 37.747C24.7589 37.747 25.6637 38.0771 26.3539 38.6764C28.7292 40.7388 31.7718 41.8745 34.9211 41.8745L38.1788 41.8744L38.1802 47.6793C38.1802 50.0618 40.1184 52 42.5009 52C44.8833 52 46.8215 50.0618 46.8215 47.6795L46.8233 41.7835C48.2347 41.4404 49.2859 40.1658 49.2859 38.6504C49.2859 37.9204 49.042 37.2463 48.6314 36.7053C49.7998 36.2204 50.6236 35.0675 50.6236 33.7258C50.6236 32.89 50.304 32.1276 49.7805 31.5541C50.7079 30.9871 51.3281 29.9652 51.3281 28.801ZM13.6549 26.8316C13.2342 26.8316 12.8931 27.1726 12.8931 27.5933V36.223H1.52343V21.3791H12.893V24.0388C12.893 24.4595 13.2341 24.8005 13.6547 24.8005C14.0754 24.8005 14.4165 24.4595 14.4165 24.0388V20.6918H19.6735V36.9105H14.4165V27.5934C14.4166 27.1727 14.0755 26.8316 13.6549 26.8316ZM48.104 30.5017H47.3995H42.211C41.7903 30.5017 41.4493 30.8426 41.4493 31.2634C41.4493 31.6842 41.7903 32.0251 42.211 32.0251H47.3995C48.3373 32.0251 49.1002 32.788 49.1002 33.7257C49.1002 34.6634 48.3373 35.4263 47.3995 35.4263H46.0618H42.211C41.7903 35.4263 41.4493 35.7673 41.4493 36.188C41.4493 36.6088 41.7903 36.9498 42.211 36.9498H46.0618C46.9995 36.9498 47.7624 37.7127 47.7624 38.6503C47.7624 39.5879 46.9995 40.3509 46.0618 40.3509H44.5277C44.1069 40.3509 43.7659 40.6918 43.7659 41.1126C43.7659 41.5334 44.1069 41.8743 44.5277 41.8743H45.2998L45.2982 47.6792C45.2982 49.2216 44.0434 50.4764 42.501 50.4764C40.9586 50.4764 39.7038 49.2216 39.7038 47.679L39.7023 41.8743H40.973C41.3938 41.8743 41.7347 41.5333 41.7347 41.1126C41.7347 40.6918 41.3937 40.3509 40.973 40.3509L34.9212 40.351C32.1388 40.351 29.451 39.3476 27.3527 37.526C26.3854 36.686 25.1259 36.2235 23.8065 36.2235L21.197 36.2231V21.379L23.8064 21.3785C25.1258 21.3785 26.3853 20.9159 27.3527 20.0761C29.4509 18.2544 32.1388 17.2511 34.9212 17.2511H37.0976C37.6579 18.3054 38.0107 19.4584 38.1325 20.6524H37.2018C36.781 20.6524 36.4401 20.9933 36.4401 21.4141C36.4401 21.8349 36.781 22.1758 37.2018 22.1758H38.9404H47.2152C48.1529 22.1758 48.9159 22.9387 48.9159 23.8765C48.9159 24.8141 48.1529 25.577 47.2153 25.577H42.2111C41.7904 25.577 41.4494 25.918 41.4494 26.3387C41.4494 26.7595 41.7904 27.1004 42.2111 27.1004H47.2153H48.104C49.0417 27.1004 49.8046 27.8634 49.8046 28.801C49.8046 29.7387 49.0418 30.5017 48.104 30.5017Z" fill="#E21C2B"/>
<path d="M42.502 48.6248C42.9227 48.6248 43.2637 48.2839 43.2637 47.8631V45.8358C43.2637 45.415 42.9227 45.0741 42.502 45.0741C42.0812 45.0741 41.7402 45.415 41.7402 45.8358V47.8631C41.7402 48.2839 42.0813 48.6248 42.502 48.6248Z" fill="#E21C2B"/>
</g>
<defs>
<clipPath id="clip0_140_769">
<rect width="52" height="52" fill="white"/>
</clipPath>
</defs>
</svg>
