<svg xmlns="http://www.w3.org/2000/svg" width="56" height="56" viewBox="0 0 56 56" fill="none">
<g clip-path="url(#clip0_229_62)">
<path d="M50.7245 45.7325L50.3586 38.7149C50.2769 37.1478 49.5907 35.7501 48.533 34.7429C49.9224 34.6166 51.0145 33.4452 51.0145 32.0235C51.0145 30.5177 49.7896 29.2928 48.2838 29.2928H46.0958C45.218 29.2928 44.4321 29.6941 43.9119 30.3229L42.487 25.2943C41.966 23.4558 40.5703 22.0294 38.8323 21.4178L38.252 20.4855C38.7049 19.6785 39.0594 18.8238 39.3094 17.9353L41.9976 17.3097C42.4374 17.2076 42.7444 16.8211 42.7444 16.3697V13.1204C42.7444 12.6693 42.4375 12.2828 41.9982 12.1804L39.3094 11.5548C39.0594 10.6667 38.705 9.81192 38.252 9.00463L39.7115 6.65984C39.9498 6.27703 39.8936 5.78692 39.5746 5.46755L37.2773 3.17034C36.9584 2.85119 36.4683 2.79453 36.0847 3.03308L33.7399 4.49258C32.9332 4.03977 32.0784 3.68528 31.1898 3.43514L30.564 0.745938C30.4616 0.306797 30.0751 0 29.6241 0H26.3749C25.924 0 25.5375 0.306797 25.435 0.746266L24.8093 3.43503C23.9207 3.68528 23.0658 4.03977 22.2592 4.49258L19.9139 3.03275C19.5307 2.79464 19.0404 2.85119 18.7222 3.17002L16.4241 5.46788C16.1055 5.78692 16.0493 6.27703 16.2876 6.65984L17.7471 9.00463C17.2942 9.8117 16.9397 10.6664 16.6897 11.5548L14.0008 12.1804C13.5614 12.2828 13.2546 12.6693 13.2546 13.1204V16.3697C13.2546 16.8211 13.5618 17.2078 14.0009 17.3096L16.6897 17.9353C16.9397 18.8235 17.2941 19.6783 17.7471 20.4855L17.1668 21.4179C15.4289 22.0295 14.0331 23.4559 13.5121 25.2943L12.0872 30.3229C11.567 29.6941 10.7811 29.2929 9.90328 29.2929H7.71523C6.20947 29.2929 4.98447 30.5179 4.98447 32.0236C4.98447 33.4453 6.07669 34.6167 7.46608 34.743C6.40831 35.7502 5.72209 37.1478 5.64039 38.7149L5.27453 45.7325C4.63764 46.0202 4.19336 46.6615 4.19336 47.4044V50.1634C4.19336 51.1744 5.01597 51.9969 6.02692 51.9969H6.62498V53.7087C6.62498 54.9722 7.65289 56.0001 8.91639 56.0001H14.3315C15.595 56.0001 16.623 54.9722 16.623 53.7087V51.9969H39.3761V53.7087C39.3761 54.9722 40.404 56.0001 41.6675 56.0001H47.0827C48.3462 56.0001 49.3741 54.9722 49.3741 53.7087V51.9969H49.9722C50.9831 51.9969 51.8057 51.1744 51.8057 50.1634V47.4044C51.8056 46.6615 51.3613 46.0202 50.7245 45.7325ZM44.9028 32.1264C44.9028 31.4686 45.438 30.9334 46.0958 30.9334H48.2838C48.8849 30.9334 49.3739 31.4225 49.3739 32.0235C49.3739 32.6245 48.8849 33.1135 48.2838 33.1135H44.9028V32.1264ZM17.4592 16.4299L14.8952 15.8331V13.6568L17.4597 13.06C17.816 12.9769 18.0909 12.7042 18.1773 12.3487C18.4216 11.3431 18.8197 10.3831 19.3601 9.49583C19.5508 9.18302 19.5492 8.79561 19.3557 8.48455L17.9638 6.24837L19.5027 4.70936L21.7394 6.10159C22.0499 6.29442 22.4368 6.29617 22.7497 6.10586C23.6371 5.56533 24.5972 5.1672 25.6024 4.92286C25.9582 4.83656 26.2309 4.56181 26.3146 4.2047L26.9113 1.64062H29.0877L29.6845 4.2058C29.768 4.56181 30.0406 4.83667 30.3959 4.92275C31.4017 5.16731 32.3618 5.56533 33.2497 6.1063C33.5621 6.29617 33.949 6.29464 34.2601 6.10138L36.4962 4.70947L38.0351 6.24848L36.6431 8.48487C36.4496 8.79572 36.448 9.18313 36.6386 9.49539C37.1791 10.3832 37.5772 11.3432 37.8216 12.3484C37.908 12.7045 38.1831 12.9773 38.5395 13.0602L41.1036 13.6569V15.8332L38.5394 16.43C38.183 16.513 37.908 16.7858 37.8216 17.1415C37.5772 18.1471 37.1791 19.1072 36.6388 19.9943C36.448 20.3071 36.4497 20.6945 36.6432 21.0056L36.6971 21.0922H33.6279C35.4049 19.5064 36.488 17.2024 36.488 14.745C36.488 14.0819 36.4111 13.4212 36.2595 12.7811C36.1551 12.3403 35.7135 12.0675 35.2723 12.1719C34.8315 12.2764 34.5587 12.7183 34.6632 13.1592C34.7854 13.6756 34.8475 14.209 34.8475 14.745C34.8475 17.5191 33.1366 20.0511 30.5752 21.0922H25.4239C22.8625 20.0511 21.1516 17.5193 21.1516 14.745C21.1516 10.969 24.2236 7.89709 27.9995 7.89709C29.9262 7.89709 31.7748 8.71576 33.0709 10.1433C33.3755 10.4788 33.8943 10.5037 34.2297 10.1992C34.565 9.89461 34.5901 9.37584 34.2856 9.0405C32.679 7.27125 30.3879 6.25647 27.9995 6.25647C23.3189 6.25647 19.511 10.0644 19.511 14.745C19.511 17.2023 20.5941 19.5064 22.371 21.0922H19.3017L19.3557 21.0054C19.5492 20.6945 19.5507 20.3071 19.3602 19.9948C18.8196 19.1072 18.4215 18.1471 18.1772 17.1418C18.0909 16.7859 17.816 16.5131 17.4592 16.4299ZM15.0905 25.7415C15.5925 23.9701 17.229 22.7328 19.0701 22.7328H25.2497C25.2558 22.7329 25.2619 22.733 25.2681 22.733C25.274 22.733 25.28 22.7329 25.2859 22.7328H30.7132C30.7191 22.7329 30.725 22.733 30.731 22.733C30.7371 22.733 30.7433 22.7329 30.7495 22.7328H36.9292C38.7703 22.7328 40.4068 23.9701 40.9087 25.7415L42.9976 33.1135H41.2373L39.2303 26.0307C38.9626 25.0861 38.0899 24.4265 37.1082 24.4265H23.129C22.6759 24.4265 22.3087 24.7938 22.3087 25.2468C22.3087 25.6998 22.6759 26.0671 23.129 26.0671H37.1081C37.3597 26.0671 37.5833 26.2361 37.6518 26.478L39.532 33.1135H16.4671L18.3474 26.478C18.4159 26.2362 18.6394 26.0672 18.891 26.0672H19.3009C19.754 26.0672 20.1212 25.7 20.1212 25.2469C20.1212 24.7939 19.754 24.4266 19.3009 24.4266H18.891C17.9091 24.4266 17.0365 25.0864 16.769 26.0308L14.7619 33.1135H13.0015L15.0905 25.7415ZM6.62509 32.0235C6.62509 31.4223 7.11411 30.9334 7.71523 30.9334H9.90317C10.5611 30.9334 11.0961 31.4686 11.0961 32.1264V33.1135H7.71523C7.11411 33.1135 6.62509 32.6246 6.62509 32.0235ZM5.83398 50.1633V47.4043C5.83398 47.298 5.9205 47.2115 6.02692 47.2115H20.6681V50.3561C19.1539 50.3561 7.58847 50.3561 6.02692 50.3561C5.9205 50.3561 5.83398 50.2696 5.83398 50.1633ZM33.6902 47.2115V50.3561H22.3087V47.2115H33.6902ZM12.2163 51.9968V54.3594H11.0314V51.9968H12.2163ZM8.2655 53.7086V51.9968H9.39075V54.3594H8.91628C8.55742 54.3594 8.2655 54.0675 8.2655 53.7086ZM14.9822 53.7086C14.9822 54.0675 14.6903 54.3594 14.3314 54.3594H13.857V51.9968H14.9822V53.7086ZM41.0168 53.7086V51.9968H42.142V54.3594H41.6675C41.3087 54.3594 41.0168 54.0675 41.0168 53.7086ZM44.9676 51.9968V54.3594H43.7826V51.9968H44.9676ZM47.7335 53.7086C47.7335 54.0675 47.4415 54.3594 47.0827 54.3594H46.6082V51.9968H47.7335V53.7086ZM50.165 50.1633C50.165 50.2696 50.0785 50.3561 49.972 50.3561C48.0685 50.3561 36.8491 50.3561 35.3308 50.3561V47.2115H42.4629C42.916 47.2115 43.2832 46.8442 43.2832 46.3912C43.2832 45.9382 42.916 45.5709 42.4629 45.5709H6.92587L7.27883 38.8002C7.39706 36.5314 9.26945 34.7541 11.5414 34.7541H44.4576C46.7295 34.7541 48.6019 36.5314 48.72 38.8002L49.0731 45.5709H46.291C45.8379 45.5709 45.4707 45.9382 45.4707 46.3912C45.4707 46.8442 45.8379 47.2115 46.291 47.2115H49.972C50.0785 47.2115 50.165 47.298 50.165 47.4043V50.1633Z" fill="#59B439"/>
<path d="M18.9723 37.2992C16.4536 37.2992 13.0357 37.2992 10.3613 37.2992C9.90819 37.2992 9.54102 37.6665 9.54102 38.1195V40.6743C9.54102 42.3679 10.9189 43.7458 12.6125 43.7458H18.9722C19.4253 43.7458 19.7925 43.3785 19.7925 42.9254V38.1195C19.7926 37.6665 19.4253 37.2992 18.9723 37.2992ZM11.1816 40.6744V38.9399H12.7152V42.1052H12.6125C11.8235 42.1051 11.1816 41.4633 11.1816 40.6744ZM18.152 42.1051H14.3559V38.9398H18.152V42.1051Z" fill="#59B439"/>
<path d="M46.4586 40.6744V38.1196C46.4586 37.6666 46.0915 37.2993 45.6383 37.2993C42.9697 37.2993 39.5492 37.2993 37.0273 37.2993C36.5742 37.2993 36.207 37.6666 36.207 38.1196V42.9256C36.207 43.3786 36.5742 43.7459 37.0273 43.7459H43.3872C45.0808 43.7458 46.4586 42.368 46.4586 40.6744ZM37.8477 38.9398H41.6437V42.1051H37.8477V38.9398ZM44.818 40.6744C44.818 41.4633 44.1762 42.1053 43.3873 42.1053H43.2845V38.9399H44.818V40.6744Z" fill="#59B439"/>
<path d="M34.2917 36.9899H21.707C21.2539 36.9899 20.8867 37.3571 20.8867 37.8102V39.4628C20.8867 42.0909 23.0248 44.2291 25.6528 44.2291H30.3458C32.9739 44.2291 35.112 42.0909 35.112 39.4628V37.8102C35.112 37.3571 34.7449 36.9899 34.2917 36.9899ZM33.4714 39.4628C33.4714 41.1863 32.0693 42.5884 30.3458 42.5884H25.6528C23.9294 42.5884 22.5273 41.1863 22.5273 39.4628V38.6305H33.4714V39.4628Z" fill="#59B439"/>
<path d="M26.2031 41.3243H29.7975C30.2507 41.3243 30.6178 40.9571 30.6178 40.504C30.6178 40.051 30.2507 39.6837 29.7975 39.6837H26.2031C25.75 39.6837 25.3828 40.051 25.3828 40.504C25.3828 40.9571 25.7501 41.3243 26.2031 41.3243Z" fill="#59B439"/>
<path d="M28.0001 10.6571C25.746 10.6571 23.9121 12.491 23.9121 14.7451C23.9121 16.9992 25.746 18.8331 28.0001 18.8331C30.2542 18.8331 32.0881 16.9992 32.0881 14.7451C32.0881 12.491 30.2542 10.6571 28.0001 10.6571ZM28.0001 17.1925C26.6506 17.1925 25.5527 16.0946 25.5527 14.7451C25.5527 13.3956 26.6506 12.2977 28.0001 12.2977C29.3496 12.2977 30.4475 13.3956 30.4475 14.7451C30.4475 16.0946 29.3496 17.1925 28.0001 17.1925Z" fill="#59B439"/>
<path d="M28 15.5654C28.453 15.5654 28.8203 15.1982 28.8203 14.7451C28.8203 14.2921 28.453 13.9248 28 13.9248C27.547 13.9248 27.1797 14.2921 27.1797 14.7451C27.1797 15.1982 27.547 15.5654 28 15.5654Z" fill="#59B439"/>
</g>
<defs>
<clipPath id="clip0_229_62">
<rect width="56" height="56" fill="white"/>
</clipPath>
</defs>
</svg>