<svg xmlns="http://www.w3.org/2000/svg" width="56" height="56" viewBox="0 0 56 56" fill="none">
<path d="M44.3994 35.0563H36.2419L36.1436 34.9083C35.7911 34.3772 35.0991 34.1808 34.5241 34.4303V31.4662C34.6107 31.4032 34.6967 31.3394 34.7819 31.2746C37.4526 29.2466 39.0308 26.6713 39.2257 24.0233L39.2635 23.5093C41.9786 23.2964 44.1227 21.019 44.1227 18.2503V17.9882C44.1227 16.2353 42.7129 14.8055 40.9678 14.7727L40.1186 13.0936V9.31783C40.1186 4.18002 35.9387 0 30.8007 0H25.201C20.0631 0 15.8831 4.18002 15.8831 9.31783V13.0935L15.0339 14.7727C13.2887 14.8055 11.8791 16.2353 11.8791 17.9882V18.2503C11.8791 21.019 14.0232 23.2965 16.7382 23.5093L16.7761 24.0233C16.9711 26.6713 18.5493 29.2466 21.22 31.2746C21.3053 31.3394 21.3912 31.4032 21.4778 31.4661V34.4303C20.9025 34.1807 20.2108 34.3773 19.8582 34.9082L19.7598 35.0562H11.6024C7.44489 35.0562 4.06261 38.4385 4.06261 42.596V48.5518C4.06261 49.0047 4.42972 49.3718 4.88254 49.3718C5.33536 49.3718 5.70248 49.0047 5.70248 48.5518V42.5961C5.70248 39.3428 8.34911 36.6962 11.6024 36.6962H18.6704L18.5856 36.824C18.3834 37.1282 18.407 37.5295 18.6433 37.8081L23.6338 43.6906C23.7874 43.8717 24.0118 43.9773 24.2493 43.98H24.259C24.4928 43.98 24.7157 43.8801 24.8715 43.7052L27.181 41.1103V54.3601H13.7854V47.364C13.7854 46.9112 13.4183 46.5441 12.9654 46.5441C12.5126 46.5441 12.1455 46.9112 12.1455 47.364V54.3601H5.70237V52.3783C5.70237 51.9255 5.33525 51.5584 4.88243 51.5584C4.42961 51.5584 4.0625 51.9255 4.0625 52.3783V55.1801C4.0625 55.6329 4.42961 56 4.88243 56H51.1193C51.5723 56 51.9393 55.6329 51.9393 55.1801V42.5961C51.9393 38.4386 48.557 35.0563 44.3994 35.0563ZM35.1112 36.3177C35.1158 36.3248 35.1204 36.3318 35.1252 36.3388L35.709 37.2175L31.7279 41.9102L29.2962 39.178L34.4124 36.3578C34.4208 36.3533 34.4291 36.3488 34.4373 36.344L34.9434 36.065L35.1112 36.3177ZM42.4828 17.9882V18.2503C42.4828 20.0718 41.1362 21.5848 39.3861 21.846L39.5847 19.1496C40.2816 19.0294 40.8941 18.6193 41.2737 18.0019C41.5397 17.5694 41.6633 17.0807 41.6422 16.5945C42.1417 16.8591 42.4828 17.3845 42.4828 17.9882ZM25.201 1.63987H30.8007C35.0344 1.63987 38.4787 5.08424 38.4787 9.31783V12.4691H37.3653C36.9124 12.4691 36.5454 12.8362 36.5454 13.289C36.5454 13.7419 36.9124 14.109 37.3653 14.109H38.7944C39.2146 14.9396 39.502 15.5078 39.9111 16.3167C40.104 16.6982 39.9513 17.0215 39.8767 17.1428C39.8021 17.2641 39.5825 17.5462 39.155 17.5462C37.9849 17.5462 18.9061 17.5462 16.8466 17.5462C16.4191 17.5462 16.1995 17.2641 16.1248 17.1428C16.0502 17.0215 15.8975 16.6981 16.0905 16.3167C16.5051 15.4966 16.7858 14.9418 17.207 14.109H33.5389C33.9918 14.109 34.3588 13.7419 34.3588 13.289C34.3588 12.8362 33.9918 12.4691 33.5389 12.4691H17.5228V9.31783C17.523 5.08424 20.9673 1.63987 25.201 1.63987ZM13.519 18.2503V17.9882C13.519 17.3845 13.86 16.8591 14.3597 16.5943C14.3386 17.0806 14.4622 17.5693 14.7281 18.0018C15.1078 18.6191 15.7202 19.0294 16.4171 19.1496L16.6158 21.846C14.8656 21.5848 13.519 20.0718 13.519 18.2503ZM18.4114 23.9028L18.3189 22.6474C18.3187 22.6448 18.3186 22.6421 18.3184 22.6394L18.0641 19.1863H37.9379L37.5905 23.9029C37.3746 26.8337 35.1169 28.9613 33.7902 29.9688C31.9269 31.3838 29.5463 32.372 28.001 32.372C26.4559 32.372 24.0752 31.3838 22.2119 29.9688C20.8851 28.9612 18.6272 26.8336 18.4114 23.9028ZM28.0008 34.0118C29.3973 34.0118 31.1772 33.449 32.8841 32.5078V34.9145C32.8841 35.0464 32.8989 35.1769 32.9274 35.3037L28.0008 38.0195L23.0742 35.3037C23.1028 35.177 23.1175 35.0464 23.1175 34.9145V32.5078C24.8244 33.449 26.6043 34.0118 28.0008 34.0118ZM24.2738 41.9101L20.2928 37.2174L20.8768 36.3382C20.8814 36.3316 20.8859 36.3248 20.8903 36.318L21.0583 36.065L21.5635 36.3435C21.5723 36.3486 21.5812 36.3534 21.5902 36.3582L26.7054 39.178L24.2738 41.9101ZM50.2994 54.3601H43.8564V47.364C43.8564 46.9112 43.4894 46.5441 43.0364 46.5441C42.5835 46.5441 42.2165 46.9112 42.2165 47.364V54.3601H28.8208V41.1103L31.1302 43.7052C31.2859 43.8801 31.5088 43.98 31.7428 43.98H31.7525C31.99 43.9772 32.2145 43.8716 32.368 43.6906L37.3585 37.8081C37.5948 37.5295 37.6183 37.1282 37.4162 36.824L37.3312 36.6962H44.3994C47.6527 36.6962 50.2994 39.3428 50.2994 42.5961V54.3601Z" fill="#59B439"/>
<path d="M39.6943 48.0394H37.5514V47.0052C38.5066 46.6667 39.1926 45.7543 39.1926 44.6846C39.1926 44.0661 38.9622 43.4748 38.5438 43.0196C38.2375 42.6861 37.7187 42.6642 37.3853 42.9706C37.0518 43.277 37.0299 43.7957 37.3363 44.1291C37.4757 44.281 37.5527 44.4782 37.5527 44.6846C37.5527 45.1374 37.1843 45.5057 36.7315 45.5057C36.2786 45.5057 35.9103 45.1373 35.9103 44.6846C35.9103 44.4734 35.9902 44.2726 36.1355 44.1197C36.4472 43.7912 36.4335 43.2722 36.105 42.9605C35.7765 42.649 35.2575 42.6625 34.9457 42.9911C34.5103 43.4502 34.2705 44.0516 34.2705 44.6847C34.2705 45.7543 34.9565 46.6667 35.9115 47.0052V48.0394H31.3395C30.8865 48.0394 30.5195 48.4065 30.5195 48.8593V52.3783C30.5195 52.8311 30.8865 53.1982 31.3395 53.1982H33.4389C33.8919 53.1982 34.2589 52.8311 34.2589 52.3783C34.2589 51.9255 33.8919 51.5584 33.4389 51.5584H32.1594V49.6793H38.8743V51.5584H37.2653C36.8124 51.5584 36.4454 51.9255 36.4454 52.3783C36.4454 52.8311 36.8124 53.1982 37.2653 53.1982H39.6943C40.1472 53.1982 40.5142 52.8311 40.5142 52.3783V48.8593C40.5142 48.4065 40.1472 48.0394 39.6943 48.0394Z" fill="#59B439"/>
<path d="M27.9993 10.6243C29.9677 10.6243 31.569 9.02292 31.569 7.05465C31.569 5.08637 29.9677 3.48499 27.9993 3.48499C26.0311 3.48499 24.4297 5.08637 24.4297 7.05465C24.4297 9.02292 26.0311 10.6243 27.9993 10.6243ZM27.9993 5.12474C29.0634 5.12474 29.9291 5.99048 29.9291 7.05454C29.9291 8.11859 29.0634 8.98433 27.9993 8.98433C26.9353 8.98433 26.0696 8.11859 26.0696 7.05454C26.0696 5.99048 26.9353 5.12474 27.9993 5.12474Z" fill="#59B439"/>
</svg>