<svg xmlns="http://www.w3.org/2000/svg" width="56" height="56" viewBox="0 0 56 56" fill="none">
<g clip-path="url(#clip0_229_43)">
<path d="M53.186 20.1782H52.7936V19.9943C52.7936 19.5412 52.4264 19.174 51.9732 19.174C51.5201 19.174 51.1529 19.5412 51.1529 19.9943V20.1782H49.2389C48.7857 20.1782 48.4186 20.5453 48.4186 20.9985V26.8907H46.7779V21.0808C46.7779 20.6277 46.4108 20.2605 45.9576 20.2605H41.3532L39.2716 15.825C39.1365 15.5371 38.847 15.3533 38.529 15.3533H34.2432L34.554 13.5395H38.395C38.8481 13.5395 39.2153 13.1724 39.2153 12.7192V10.6666C39.6277 10.6233 39.9489 10.2747 39.9489 9.85086V6.95166C39.9489 6.49852 39.5817 6.13135 39.1286 6.13135H17.6796C17.2265 6.13135 16.8593 6.49852 16.8593 6.95166V9.85086C16.8593 10.2747 17.1805 10.6233 17.5929 10.6666V12.7192C17.5929 13.1724 17.96 13.5395 18.4132 13.5395H22.2542L22.5649 15.3533H17.9811C17.6631 15.3533 17.3737 15.5372 17.2386 15.825L15.1571 20.2605H12.9094C11.1573 20.2605 9.73208 21.6858 9.73208 23.4379V28.3788L7.52489 29.223C7.20738 29.3444 6.9977 29.6492 6.9977 29.9892V30.3449H5.89127C5.87442 30.2493 5.84117 30.1594 5.79458 30.078V24.283C5.79458 23.8299 5.42741 23.4627 4.97427 23.4627C4.52112 23.4627 4.15395 23.8299 4.15395 24.283V29.6591H2.95225V20.036C2.95225 19.4134 3.45888 18.9069 4.08144 18.9069H4.15384V20.4549C4.15384 20.908 4.52102 21.2752 4.97416 21.2752C5.4273 21.2752 5.79447 20.908 5.79447 20.4549V18.0866C5.79447 17.6334 5.4273 17.2663 4.97416 17.2663H4.08144C2.55413 17.2663 1.31163 18.5088 1.31163 20.036V29.8233C0.542062 30.1452 0 30.906 0 31.7911V33.4309C0 34.316 0.542062 35.0767 1.31163 35.3987V45.186C1.31163 46.7133 2.55413 47.9558 4.08144 47.9558H4.97416C5.4273 47.9558 5.79447 47.5886 5.79447 47.1355V35.1439C5.84106 35.0626 5.87431 34.9727 5.89116 34.8772H6.99759V35.2329C6.99759 35.5728 7.20727 35.8776 7.52478 35.999L9.73197 36.8433V41.7842C9.73197 43.5363 11.1572 44.9615 12.9093 44.9615H26.8463L28.9278 49.397C29.0629 49.685 29.3523 49.8688 29.6704 49.8688H45.9576C46.4108 49.8688 46.7779 49.5016 46.7779 49.0485C46.7779 47.9381 46.7779 39.472 46.7779 38.3314H48.4186V44.2236C48.4186 44.6767 48.7857 45.0439 49.2389 45.0439H51.1529V45.2278C51.1529 45.6809 51.5201 46.0481 51.9732 46.0481C52.4264 46.0481 52.7936 45.6809 52.7936 45.2278V45.0439H53.186C54.7377 45.0439 56 43.7816 56 42.2299V22.9922C56 21.4405 54.7377 20.1782 53.186 20.1782ZM18.4999 7.77197H38.3084V9.03055H18.4999V7.77197ZM19.2335 10.6711H37.5748V11.8989C35.1736 11.8989 20.808 11.8989 19.2335 11.8989V10.6711ZM23.9188 13.5395H32.8896L32.5789 15.3533H24.2295L23.9188 13.5395ZM18.5022 16.9939H38.0078L39.5408 20.2605H37.1843V18.908C37.1843 18.4548 36.8172 18.0877 36.364 18.0877C35.9109 18.0877 35.5437 18.4548 35.5437 18.908V20.2605H33.1299V18.908C33.1299 18.4548 32.7627 18.0877 32.3096 18.0877C31.8565 18.0877 31.4893 18.4548 31.4893 18.908V20.2605H29.0755V18.908C29.0755 18.4548 28.7083 18.0877 28.2552 18.0877C27.802 18.0877 27.4349 18.4548 27.4349 18.908V20.2605H25.0211V18.908C25.0211 18.4548 24.6539 18.0877 24.2008 18.0877C23.7476 18.0877 23.3804 18.4548 23.3804 18.908V20.2605H20.9666V18.908C20.9666 18.4548 20.5995 18.0877 20.1463 18.0877C19.6932 18.0877 19.326 18.4548 19.326 18.908V20.2605H16.9694L18.5022 16.9939ZM4.26333 31.2996V33.9223H2.13194C1.86102 33.9223 1.64062 33.7018 1.64062 33.431V31.7912C1.64062 31.5201 1.86113 31.2997 2.13194 31.2997H4.26333V31.2996ZM4.15395 46.3153H4.08155C3.45898 46.3153 2.95236 45.8087 2.95236 45.1861V35.563H4.15395V46.3153ZM5.90395 33.2366V31.9855H6.9977V33.2366H5.90395ZM8.63833 34.6684C8.63833 33.2973 8.63833 31.9263 8.63833 30.5537L9.73208 30.1353V35.0868L8.63833 34.6684ZM11.3727 41.7841C11.3727 38.2191 11.3727 26.9768 11.3727 23.4379C11.3727 22.5905 12.0621 21.9011 12.9094 21.9011H45.1374V43.3208C42.7511 43.3208 14.1949 43.3208 12.9094 43.3208C12.062 43.3208 11.3727 42.6314 11.3727 41.7841ZM45.1374 48.228H42.3068L41.5085 46.5269C41.3159 46.1168 40.8275 45.9405 40.4173 46.1329C40.0072 46.3252 39.8309 46.8138 40.0233 47.224L40.4945 48.228H38.4794L37.6811 46.5269C37.4886 46.1168 37 45.9405 36.59 46.1329C36.1798 46.3254 36.0035 46.8138 36.1959 47.224L36.6671 48.228H34.6522L33.8539 46.5269C33.6614 46.1168 33.1729 45.9405 32.7627 46.1329C32.3526 46.3252 32.1763 46.8138 32.3687 47.224L32.8398 48.228H30.1914L28.6584 44.9614H45.1372V48.228H45.1374ZM46.778 36.6906V28.5313H48.4187V36.6906H46.778ZM54.3594 42.2299C54.3594 42.8769 53.833 43.4033 53.186 43.4033H52.7936V40.9393C52.7936 40.4861 52.4264 40.119 51.9732 40.119C51.5201 40.119 51.1529 40.4861 51.1529 40.9393V43.4033H50.0592C50.0592 40.6779 50.0592 24.3171 50.0592 21.8189H51.1529V37.111C51.1529 37.5642 51.5201 37.9314 51.9732 37.9314C52.4264 37.9314 52.7936 37.5642 52.7936 37.111V21.8188H53.186C53.833 21.8188 54.3594 22.3452 54.3594 22.9922V42.2299Z" fill="#59B439"/>
<path d="M33.0642 35.9177C34.1503 37.4829 35.9346 38.4173 37.8372 38.4173C40.2326 38.4173 42.4139 36.9127 43.2652 34.6734C43.361 34.4213 43.3268 34.1381 43.1737 33.9162C43.0206 33.6941 42.7681 33.5616 42.4984 33.5616H38.3108L37.762 32.6112L38.3108 31.6608H42.4984C42.7681 31.6608 43.0205 31.5282 43.1737 31.3062C43.3268 31.0842 43.361 30.8011 43.2652 30.549C42.4139 28.3095 40.2326 26.8051 37.8372 26.8051C35.9346 26.8051 34.1503 27.7394 33.0642 29.3046C32.8242 29.6507 32.4127 29.8574 31.9636 29.8574H31.4565C31.0034 29.8574 30.6362 30.2246 30.6362 30.6777C30.6362 31.1308 31.0034 31.498 31.4565 31.498H31.9636C32.9502 31.498 33.8655 31.0277 34.4122 30.2399C35.1917 29.1165 36.472 28.4458 37.8371 28.4458C39.1199 28.4458 40.317 29.0471 41.0957 30.0203H37.8371C37.544 30.0203 37.2733 30.1768 37.1267 30.4305L36.1043 32.2013C35.9577 32.455 35.9577 32.7678 36.1043 33.0216L37.1267 34.7923C37.2733 35.046 37.544 35.2024 37.8371 35.2024H41.0957C40.317 36.1755 39.1199 36.777 37.8371 36.777C36.472 36.777 35.1916 36.1063 34.4122 34.9829C33.8655 34.1951 32.9502 33.7248 31.9636 33.7248H24.5446C23.5581 33.7248 22.6428 34.1951 22.096 34.9829C21.3166 36.1063 20.0361 36.777 18.671 36.777C17.3883 36.777 16.1913 36.1756 15.4125 35.2024H18.671C18.9642 35.2024 19.2349 35.046 19.3814 34.7923L20.4039 33.0216C20.5504 32.7678 20.5504 32.455 20.4039 32.2013L19.3814 30.4305C19.2349 30.1768 18.9642 30.0203 18.671 30.0203H15.4125C16.1913 29.0472 17.3883 28.4458 18.671 28.4458C20.0361 28.4458 21.3166 29.1165 22.0961 30.24C22.6428 31.0277 23.5581 31.498 24.5446 31.498H27.6284C28.0815 31.498 28.4487 31.1308 28.4487 30.6777C28.4487 30.2246 28.0815 29.8574 27.6284 29.8574H24.5446C24.0957 29.8574 23.6842 29.6507 23.4439 29.3046C22.3581 27.7394 20.5738 26.8051 18.6709 26.8051C16.2757 26.8051 14.0943 28.3096 13.243 30.549C13.1472 30.8011 13.1814 31.0842 13.3345 31.3062C13.4875 31.5282 13.7401 31.6608 14.0098 31.6608H18.1973L18.7462 32.6112L18.1973 33.5616H14.0098C13.7401 33.5616 13.4876 33.6941 13.3345 33.9162C13.1814 34.1382 13.1472 34.4213 13.243 34.6734C14.0943 36.9128 16.2757 38.4173 18.6709 38.4173C20.5737 38.4173 22.3581 37.4829 23.4438 35.9179C23.6841 35.5717 24.0956 35.365 24.5445 35.365H31.9635C32.4127 35.365 32.824 35.5717 33.0642 35.9177Z" fill="#59B439"/>
</g>
<defs>
<clipPath id="clip0_229_43">
<rect width="56" height="56" fill="white"/>
</clipPath>
</defs>
</svg>