<svg width="38" height="56" viewBox="0 0 38 56" fill="none" xmlns="http://www.w3.org/2000/svg">
<path d="M21.0318 50.5399H19.2268L4.96735 41.6955C4.6966 41.515 4.3356 41.515 4.06485 41.6955C3.7941 41.7857 3.6136 42.0565 3.6136 42.4175C3.6136 43.5907 2.8916 44.5835 1.80861 44.9445V13.5375C1.80861 12.996 1.44761 12.635 0.906108 12.635C0.364609 12.635 0.00360999 12.996 0.00360999 13.5375V46.0275C0.00360999 46.0275 -0.0866399 46.6592 0.635359 46.8397L18.6853 52.2547H18.9561H21.0318C21.5733 52.2547 21.9343 51.8937 21.9343 51.3522C21.9343 50.8107 21.5733 50.5399 21.0318 50.5399ZM3.70385 45.9372C4.3356 45.3957 4.8771 44.6737 5.14785 43.8615L12.7288 48.6447L3.70385 45.9372Z" fill="#E21C2B"/>
<path d="M37.0067 34.2949C36.4652 34.2949 36.1042 34.6559 36.1042 35.1974V49.6374C36.1042 50.0886 35.7432 50.6301 35.1115 50.6301C34.57 50.6301 34.209 50.9911 34.209 51.5326C34.209 52.0741 34.57 52.4351 35.1115 52.4351C36.6457 52.4351 37.9092 51.1716 37.9092 49.6374V35.1974C37.9092 34.6559 37.5482 34.2949 37.0067 34.2949Z" fill="#E21C2B"/>
<path d="M35.2022 0H18.9572C18.4157 0 18.0547 0.360999 18.0547 0.902498C18.0547 1.444 18.4157 1.805 18.9572 1.805H35.2022C35.7437 1.805 36.1047 2.25625 36.1047 2.79775V32.2192C36.1047 32.7607 36.4657 33.1217 37.0072 33.1217C37.5487 33.1217 37.9097 32.7607 37.9097 32.2192V2.79775C37.9097 1.2635 36.7364 0 35.2022 0Z" fill="#E21C2B"/>
<path d="M0.906405 5.41499C1.4479 5.41499 1.8089 5.05399 1.8089 4.51249V2.79774C1.8089 2.25625 2.26015 1.805 2.80165 1.805H14.6239C15.1654 1.805 15.5264 1.444 15.5264 0.902498C15.5264 0.360999 15.1654 0 14.6239 0H2.80165C1.2674 0 0.00390625 1.2635 0.00390625 2.79774V4.51249C0.00390625 5.05399 0.364906 5.41499 0.906405 5.41499Z" fill="#E21C2B"/>
<path d="M0.906405 10.6495C1.4479 10.6495 1.8089 10.2885 1.8089 9.74697V8.12247C1.8089 7.58097 1.4479 7.21997 0.906405 7.21997C0.364906 7.21997 0.00390625 7.58097 0.00390625 8.12247V9.74697C0.00390625 10.1982 0.364906 10.6495 0.906405 10.6495Z" fill="#E21C2B"/>
<path d="M34.6592 41.8759L33.7567 40.6124L33.8469 39.0782C33.8469 38.7172 33.5762 38.3562 33.2152 38.1757L31.6809 37.6342L30.7784 36.3707C30.5077 36.0999 30.1467 35.9194 29.7857 36.0097L28.3417 36.4609L26.8074 36.0999C26.4464 36.0097 25.9952 36.0999 25.8147 36.4609L24.9122 37.7244L23.3779 38.1757C23.0169 38.2659 22.7462 38.6269 22.7462 39.0782V40.6124L21.8437 41.7857C21.5729 42.0564 21.5729 42.5077 21.8437 42.8687L22.7462 44.1322V45.7567C22.7462 46.2079 23.0169 46.4787 23.3779 46.6592L23.7389 46.7494V55.0524C23.7389 55.3231 23.9194 55.6841 24.1902 55.8646C24.4609 56.0451 24.8219 56.0451 25.0927 55.8646L28.3417 54.2401L31.5907 55.8646C32.4932 56.1354 32.7639 55.5939 32.7639 55.0524V53.1572C32.7639 52.6157 32.4029 52.2547 31.8614 52.2547C31.3199 52.2547 30.9589 52.6157 30.9589 53.1572V53.6084L28.6124 52.4352C28.3417 52.3449 28.0709 52.3449 27.8002 52.4352L25.4537 53.6084V48.1032L25.6342 48.3739C25.9049 48.7349 26.2659 48.8252 26.6269 48.7349L28.1612 48.1934L29.6052 48.7349C29.6954 48.7349 29.7857 48.8252 29.8759 48.8252C30.1467 48.8252 30.4174 48.6447 30.5979 48.4642L30.8687 48.1032V49.9082C30.8687 50.4497 31.2297 50.8107 31.7712 50.8107C32.3127 50.8107 32.6737 50.4497 32.6737 49.9082V46.8397L33.0347 46.6592C33.3957 46.5689 33.6664 46.2079 33.6664 45.8469V44.2224L34.5689 42.9589C34.9299 42.5979 34.9299 42.2369 34.6592 41.8759ZM32.1322 43.4102C32.0419 43.5907 31.9517 43.7712 31.9517 43.9517V45.1249L30.8687 45.3957C30.6882 45.4859 30.4174 45.5762 30.3272 45.7567L29.6052 46.7494L28.5222 46.3884C28.3417 46.2982 28.0709 46.2982 27.8904 46.3884L26.7172 46.8397L25.9952 45.8469C25.9049 45.6664 25.7244 45.5762 25.5439 45.4859L24.3707 45.1249V43.9517C24.3707 43.7712 24.2804 43.5907 24.1902 43.4102L23.4682 42.4174L24.1902 41.5149C24.2804 41.3344 24.3707 41.1539 24.3707 40.9734V39.7099L25.5439 39.3489C25.7244 39.2587 25.9049 39.1684 25.9952 38.9879L26.7172 37.9952L27.8904 38.4464C28.0709 38.5367 28.2514 38.5367 28.4319 38.4464L29.5149 38.0854L30.2369 38.9879C30.3272 39.1684 30.5077 39.2587 30.6882 39.2587L31.8614 39.7099L31.7712 40.8832C31.7712 41.0637 31.8614 41.2442 31.9517 41.4247L32.6737 42.4174L32.1322 43.4102Z" fill="#E21C2B"/>
<path d="M7.22461 8.12247C7.22461 8.66397 7.58561 9.02497 8.12711 9.02497H29.7871C30.3286 9.02497 30.6896 8.66397 30.6896 8.12247C30.6896 7.58097 30.3286 7.21997 29.7871 7.21997H8.12711C7.58561 7.21997 7.22461 7.58097 7.22461 8.12247Z" fill="#E21C2B"/>
<path d="M3.61328 13.5375C3.61328 14.079 3.97428 14.44 4.51578 14.44H33.3957C33.9372 14.44 34.2982 14.079 34.2982 13.5375C34.2982 12.996 33.9372 12.635 33.3957 12.635H4.51578C3.97428 12.635 3.61328 12.996 3.61328 13.5375Z" fill="#E21C2B"/>
<path d="M33.3957 19.855H4.51578C3.97428 19.855 3.61328 20.216 3.61328 20.7575C3.61328 21.299 3.97428 21.66 4.51578 21.66H33.3957C33.9372 21.66 34.2982 21.299 34.2982 20.7575C34.2982 20.216 33.9372 19.855 33.3957 19.855Z" fill="#E21C2B"/>
<path d="M34.2982 27.9774C34.2982 27.436 33.9372 27.075 33.3957 27.075H4.51578C3.97428 27.075 3.61328 27.436 3.61328 27.9774C3.61328 28.5189 3.97428 28.8799 4.51578 28.8799H33.3957C33.9372 28.8799 34.2982 28.5189 34.2982 27.9774Z" fill="#E21C2B"/>
<path d="M4.51578 34.2949C3.97428 34.2949 3.61328 34.6559 3.61328 35.1974C3.61328 35.7389 3.97428 36.0999 4.51578 36.0999H22.5658C23.1072 36.0999 23.4682 35.7389 23.4682 35.1974C23.4682 34.6559 23.1072 34.2949 22.5658 34.2949H4.51578Z" fill="#E21C2B"/>
<path d="M27.9829 39.71C26.4486 39.71 25.2754 40.8832 25.2754 42.4175C25.2754 42.959 25.6364 43.32 26.1779 43.32C26.7194 43.32 27.0804 42.959 27.0804 42.4175C27.0804 41.876 27.4414 41.515 27.9829 41.515C28.5244 41.515 28.8854 41.154 28.8854 40.6125C28.8854 40.071 28.5244 39.71 27.9829 39.71Z" fill="#E21C2B"/>
<path d="M33.395 9.0251C33.9365 9.0251 34.2975 8.6641 34.2975 8.1226V5.68585C34.2975 4.60286 33.3047 3.61011 32.2217 3.61011H31.59C31.0485 3.61011 30.6875 3.97111 30.6875 4.51261C30.6875 5.0541 31.0485 5.4151 31.59 5.4151H32.2217C32.312 5.4151 32.4925 5.5956 32.4925 5.68585V8.1226C32.4925 8.6641 32.8535 9.0251 33.395 9.0251Z" fill="#E21C2B"/>
<path d="M27.9829 5.4151C28.5244 5.4151 28.8854 5.0541 28.8854 4.51261C28.8854 3.97111 28.5244 3.61011 27.9829 3.61011H26.1779C25.6364 3.61011 25.2754 3.97111 25.2754 4.51261C25.2754 5.0541 25.6364 5.4151 26.1779 5.4151H27.9829Z" fill="#E21C2B"/>
</svg>
