<svg width="476" height="96" viewBox="0 0 476 96" fill="none" xmlns="http://www.w3.org/2000/svg">
<path fill-rule="evenodd" clip-rule="evenodd" d="M471.327 50.474C471.923 49.3313 472.05 48.5221 472.05 48C472.05 47.4779 471.923 46.6687 471.327 45.526C470.722 44.3636 469.728 43.054 468.258 41.6541C465.322 38.8567 460.865 36.0522 454.948 33.3256C443.145 27.8866 425.977 22.9527 404.657 18.7971C362.043 10.491 303.12 5.34545 238 5.34545C172.88 5.34545 113.957 10.491 71.343 18.7971C50.0231 22.9527 32.8548 27.8866 21.0521 33.3256C15.1354 36.0522 10.6784 38.8567 7.74159 41.6541C6.272 43.054 5.27839 44.3636 4.67273 45.526C4.07738 46.6687 3.95041 47.4779 3.95041 48C3.95041 48.5221 4.07738 49.3313 4.67273 50.474C5.27839 51.6364 6.272 52.946 7.74159 54.3459C10.6784 57.1433 15.1354 59.9478 21.0521 62.6744C32.8548 68.1134 50.0231 73.0473 71.343 77.2028C113.957 85.509 172.88 90.6545 238 90.6545C303.12 90.6545 362.043 85.509 404.657 77.2028C425.977 73.0473 443.145 68.1134 454.948 62.6744C460.865 59.9478 465.322 57.1433 468.258 54.3459C469.728 52.946 470.722 51.6364 471.327 50.474ZM238 94C368.339 94 474 73.4051 474 48C474 22.5949 368.339 2 238 2C107.661 2 2 22.5949 2 48C2 73.4051 107.661 94 238 94Z" stroke="url(#paint0_linear_141_1002)" stroke-width="3" stroke-linecap="round"/>
<defs>
<linearGradient id="paint0_linear_141_1002" x1="245.674" y1="-2.90219" x2="245.674" y2="94" gradientUnits="userSpaceOnUse">
<stop stop-color="white"/>
<stop offset="0.53125" stop-color="#E0E0E0"/>
</linearGradient>
</defs>
</svg>
