<svg width="41" height="79" viewBox="0 0 41 79" fill="none" xmlns="http://www.w3.org/2000/svg">
<path d="M1.36433 78.5601L40.8441 19.225C41.0196 18.9614 41.0494 18.6067 40.9209 18.31C40.7929 18.0128 40.5289 17.8251 40.2398 17.8251H32.0257L40.3181 1.3063C40.4536 1.03659 40.4536 0.704509 40.3176 0.435428C40.1816 0.16572 39.9309 0 39.6599 0H7.85957C7.499 0 7.18803 0.290499 7.1155 0.69535L1.02101 34.6018V34.6024C0.975133 34.8586 1.03221 35.1253 1.17622 35.3283C1.32077 35.5314 1.53678 35.6494 1.76561 35.6494H9.22762L0.0229987 77.8191C-0.0650097 78.2203 0.105674 78.6368 0.43051 78.816C0.755341 78.9952 1.14578 78.8882 1.36446 78.5592L1.36433 78.5601Z" fill="#FFEC00"/>
</svg>
